<svg xmlns="http://www.w3.org/2000/svg" xmlns:xlink="http://www.w3.org/1999/xlink" viewBox="0 0 896.13 277.93"><defs><style>.cls-1{isolation:isolate;}.cls-2{fill:url(#radial-gradient);}.cls-3{fill:url(#radial-gradient-2);}.cls-4{fill:#fff;opacity:0.3;mix-blend-mode:overlay;}.cls-5{fill:#231f20;}</style><radialGradient id="radial-gradient" cx="148.63" cy="136.45" r="148.44" gradientUnits="userSpaceOnUse"><stop offset="0" stop-color="#17b0ce"/><stop offset="0.14" stop-color="#2097b9"/><stop offset="0.41" stop-color="#2f6e96"/><stop offset="0.65" stop-color="#39507d"/><stop offset="0.85" stop-color="#403e6e"/><stop offset="1" stop-color="#423768"/></radialGradient><radialGradient id="radial-gradient-2" cx="135.87" cy="118.03" r="118.59" gradientUnits="userSpaceOnUse"><stop offset="0" stop-color="#18dab6"/><stop offset="0.32" stop-color="#18c6c1"/><stop offset="0.71" stop-color="#17b6cb"/><stop offset="1" stop-color="#17b0ce"/></radialGradient></defs><g class="cls-1"><g id="Layer_2" data-name="Layer 2"><g id="Layer_1-2" data-name="Layer 1"><path class="cls-2" d="M237.23,237.23a139,139,0,0,1-196.53,0l-.09-.09L60.06,217.7a111.3,111.3,0,0,0,157.68,0Zm-26.15-26.15-25.37-25.37a66.13,66.13,0,0,1-84.21,7.72h24.22v0h6.49l25.59-25.59,1.11.47a11.75,11.75,0,1,0-6.12-6.11l.3.69-23.7,23.7H100.89l58.36-58.37.91.38a11.75,11.75,0,1,0-6.13-6.12l.39.9L92.16,185.65h0L66.72,211.05a101.92,101.92,0,0,0,144.36,0Z"/><path class="cls-3" d="M138.92,36.9a101.78,101.78,0,0,1,72.14,29.93L185.67,92.19A66.1,66.1,0,0,0,77.09,162.24l24.11-24.11-.39-.89a11.76,11.76,0,1,1,6.12,6.11L106,143l-26,26a65.91,65.91,0,0,0,12.1,16.69L66.72,211.05A102,102,0,0,1,138.92,36.9ZM40.7,40.7a139,139,0,0,0-.09,196.44L60.06,217.7A111.44,111.44,0,1,1,217.72,60.17l19.49-19.48A139,139,0,0,0,40.7,40.7Z"/><path class="cls-4" d="M27.43,139a111,111,0,0,0,26.1,71.58L34,230A138.27,138.27,0,0,1,1.4,158.66l26.24-26.23C27.51,134.59,27.43,136.77,27.43,139ZM138.92,36.9a102.06,102.06,0,0,0-17.24,1.48L38.33,121.73A103.11,103.11,0,0,0,36.85,139a101.54,101.54,0,0,0,23.36,64.9l25.62-25.62a65.32,65.32,0,0,1-5.78-9.3l26-26,.9.38a11.75,11.75,0,1,0-6.12-6.11l.39.89L77.09,162.24A66.11,66.11,0,0,1,178.27,85.81l25.56-25.55A101.59,101.59,0,0,0,138.92,36.9ZM158.66,1.4,132.38,27.68c2.16-.12,4.34-.2,6.54-.2a110.93,110.93,0,0,1,71.58,26.1L230,34.05A138.22,138.22,0,0,0,158.66,1.4Z"/><path class="cls-5" d="M301,107.49c1.11-1.36,2.27-2.87,3.48-4.55,1.42-2,2.61-3.06,3.55-3.06a2.25,2.25,0,0,1,2.06.79c.31.52.58,2.14.79,4.86L312.41,130l.15,3.14c0,2.09-.84,3.13-2.52,3.13-1.11,0-2-.86-2.69-2.59q-3.24-8.31-11.66-18.46t-21.23-10.16a23.86,23.86,0,0,0-15.94,5.45,35.59,35.59,0,0,0-10,14.94q-3.6,9.49-3.6,22.74,0,22.67,10,36t25,13.37q16.2,0,29.71-19.45c1.1-1.57,2.15-2.35,3.14-2.35a2.22,2.22,0,0,1,2.51,2.51q0,5.17-12.44,16.47t-31.16,11.29q-24.79,0-39.17-15.21t-14.37-37.41a55.8,55.8,0,0,1,14.5-38.39q14.5-16.28,36.64-16.27Q284.82,98.79,301,107.49Z"/><path class="cls-5" d="M399.91,168.43q0,14.43-10.81,25.64t-27.49,11.22q-15.33,0-25.75-9.41t-10.42-25.1q0-15.92,11-25.76t26.81-9.85q16,0,26.34,9.3T399.91,168.43Zm-21.79,5.37a60.39,60.39,0,0,0-4.31-23.28q-4.31-10.41-12.36-10.4-7.11,0-11,7.26t-3.87,20.38q0,14.28,4.39,23.44t12,9.15q7.5,0,11.3-7.31T378.12,173.8Z"/><path class="cls-5" d="M439.56,96.67l.24,65.8q.07,31.51,1.66,34.43t6.32,3.13q5.52.24,5.52,2.2,0,2.43-3.39,2.43c-.63,0-1.56,0-2.77-.16q-7.65-.63-14.84-.63-11.7,0-17.3.62a27.67,27.67,0,0,1-2.84.17c-2.37,0-3.56-.71-3.56-2.12s1.34-2.12,4-2.27Q417,200,419,198.7a5.48,5.48,0,0,0,2.45-3.73,86.64,86.64,0,0,0,.43-11.19l-.32-30.84.24-24.49q0-15.22-1.46-18.49t-8.65-4.43c-2.89-.42-4.34-1.25-4.34-2.51a1.61,1.61,0,0,1,1-1.61,20.47,20.47,0,0,1,4.85-.74A158.65,158.65,0,0,0,439.56,96.67Z"/><path class="cls-5" d="M488.45,96.67l.24,65.8q.07,31.51,1.66,34.43t6.31,3.13q5.54.24,5.53,2.2,0,2.43-3.39,2.43c-.64,0-1.56,0-2.77-.16q-7.66-.63-14.85-.63-11.69,0-17.29.62a27.85,27.85,0,0,1-2.85.17c-2.36,0-3.55-.71-3.55-2.12s1.34-2.12,4-2.27q4.34-.24,6.36-1.57a5.46,5.46,0,0,0,2.44-3.73,84,84,0,0,0,.44-11.19l-.32-30.84.24-24.49q0-15.22-1.46-18.49t-8.65-4.43c-2.9-.42-4.34-1.25-4.34-2.51a1.61,1.61,0,0,1,1-1.61,20.7,20.7,0,0,1,4.86-.74A158.81,158.81,0,0,0,488.45,96.67Z"/><path class="cls-5" d="M547.45,196.42a37.6,37.6,0,0,1-9.88,6.94,23.46,23.46,0,0,1-10,2.32q-8.06,0-12.43-4.83a16.83,16.83,0,0,1-4.39-11.75,17.55,17.55,0,0,1,2.64-9.54A19.32,19.32,0,0,1,519.9,173a79.9,79.9,0,0,1,12.89-5.54,66.05,66.05,0,0,0,10.13-4.21,12.31,12.31,0,0,0,4.29-4.47A14.82,14.82,0,0,0,549,151.2a12.38,12.38,0,0,0-2.6-8.24,8.85,8.85,0,0,0-7.15-3.08q-3.93,0-5.58,2a14.8,14.8,0,0,0-2.52,6.48q-1.82,8.91-9.72,8.9a8.41,8.41,0,0,1-5.52-1.88,6.6,6.6,0,0,1-2.29-5.41q0-7.53,8.25-11.26t19.7-3.72q9.87,0,16.08,3t7.93,6.9c1.16,2.62,1.74,6.69,1.74,12.24l-.16,18.58q0,14.67,1,18.82c.66,2.78,2.07,4.16,4.22,4.16.32,0,.74,0,1.27-.08q1.57-.15,2.13-.15,3.24,0,3.24,1.8a2.37,2.37,0,0,1-1.34,2q-1.35.83-8.1,2.08a67.93,67.93,0,0,1-12.2,1.25q-5.45,0-7.46-2.06T547.45,196.42Zm1-31.44q-1.89,2.28-9.08,6.05-6.55,3.47-8.77,6.13c-1.47,1.84-2.21,4.48-2.21,7.94q0,5.51,2.33,8.38a7.13,7.13,0,0,0,5.73,2.87q4.57,0,8.53-4.21t4-14.82Q549,174,548.47,165Z"/><path class="cls-5" d="M610.63,140.59a34.8,34.8,0,0,1,9-4,35.59,35.59,0,0,1,9.64-1.3A30,30,0,0,1,652,145.16q9.24,9.84,9.24,24.48a35.69,35.69,0,0,1-4.54,17.9,36.66,36.66,0,0,1-12.52,13.09,33.69,33.69,0,0,1-18.4,5.05,36.34,36.34,0,0,1-12.4-1.92,69.17,69.17,0,0,1-12.71-6.62,3.46,3.46,0,0,0-1.58-.63c-1.11,0-1.93,1-2.45,3.06q-1.5,5.25-3.32,5.25a1.63,1.63,0,0,1-1.77-1.18c-.24-.78-.36-4.26-.36-10.42l.63-56.9q0-29.22-.63-32c-.42-1.83-2.42-2.92-6-3.29-2.27-.21-3.4-1-3.4-2.27s1-2.12,3.08-2.12q1.74,0,7.5.39,4.35.24,7.59.24l7.89-.24c1.95,0,2.93.73,2.93,2.2l.08,3.76Q610.87,135.09,610.63,140.59Zm13.74.62a13.3,13.3,0,0,0-8.84,3.37q-4,3.38-5,16t-1,19.7q0,11.19,4.15,15.7a12.93,12.93,0,0,0,9.83,4.5q7.18,0,11.69-8.22t4.5-20.91q0-12.69-4-21.42T624.37,141.21Z"/><path class="cls-5" d="M749,168.43q0,14.43-10.82,25.64t-27.49,11.22q-15.32,0-25.74-9.41t-10.43-25.1q0-15.92,11-25.76t26.81-9.85q16,0,26.34,9.3T749,168.43Zm-21.8,5.37a60.39,60.39,0,0,0-4.3-23.28q-4.3-10.41-12.36-10.4-7.11,0-11,7.26t-3.87,20.38q0,14.28,4.38,23.44t12,9.15q7.5,0,11.29-7.31T727.2,173.8Z"/><path class="cls-5" d="M786.43,150.78q4-7.92,9.09-11.84A18.43,18.43,0,0,1,807,135q6,0,9.59,3.45a11.46,11.46,0,0,1,3.6,8.63,10.05,10.05,0,0,1-2.57,6.94,8.13,8.13,0,0,1-6.28,2.86,7.25,7.25,0,0,1-4.58-1.41,17.28,17.28,0,0,1-3.87-5q-2.83-5.17-5-5.18-2.92,0-6.64,5.87T787.54,174q0,21.39,1.46,23.77c1,1.6,3.12,2.39,6.44,2.39q4.34,0,4.34,2.35t-4.26,2.2q-2.37,0-6.87-.43-4.11-.36-7.74-.36-7.83,0-15.48.55c-2.16.16-3.43.24-3.8.24-2.21,0-3.31-.82-3.31-2.47q0-2.16,3.87-2.32c2.52-.1,4.29-.69,5.29-1.76s1.5-3.4,1.5-7l.32-19.58q0-5.94-.48-14.8a93.24,93.24,0,0,0-.87-10.53,5.55,5.55,0,0,0-2-3,7.78,7.78,0,0,0-4.38-1.56,11.52,11.52,0,0,1-3.6-.75,1.86,1.86,0,0,1-.75-1.76q0-2.13,3.95-2.2,7.26-.08,24.72-1.88Z"/><path class="cls-5" d="M878.4,155.2q8.86,3.65,13.3,9.45a21.71,21.71,0,0,1,4.43,13.57q0,11.39-9.83,19.5t-24.2,8.12q-13.51,0-22.2-6.4t-8.69-14.54q0-5.66,4.47-11.53t13.86-10q-7.83-3.77-11.73-9a19.67,19.67,0,0,1-3.91-12.08,22.42,22.42,0,0,1,9-18.58q9-7.07,22.39-7.06,12.72,0,20.3,5.43t7.58,13.76a15.25,15.25,0,0,1-3.29,9.55Q886.64,149.62,878.4,155.2Zm-23.34,10.72a29.64,29.64,0,0,0-7.81,8.75,20.14,20.14,0,0,0-2.61,10,14.58,14.58,0,0,0,5.13,11.53q5.15,4.47,13.11,4.47,8.93,0,13.59-4.82a15.46,15.46,0,0,0,4.66-11,12.1,12.1,0,0,0-3.67-8.39Q873.79,172.5,855.06,165.92Zm17.45-13.55a22.25,22.25,0,0,0,6.56-6.91,16.75,16.75,0,0,0,2.61-8.94q0-5.19-4.3-10.13t-12.6-4.94q-7.66,0-12.2,4.35T848,135.17q0,3.3,2.84,7t15,7.89Q871.1,151.79,872.51,152.37Z"/></g></g></g></svg>